# xmcd
#
# Track frame offsets:
# 150
# 18232
# 31467
# 54737
# 68606
# 90519
# 102960
# 114389
# 133664
# 151129
# 170743
#
# Disc length: 2553 seconds
#
#
# Revision: 0
# Processed by: cddbd v1.5.2PL0 Copyright (c) Steve Scherf et al.
# Submitted via: FreeRIP 2.951 
#
DISCID=8709f70b
DTITLE=André Viola - André Viola
DYEAR=2008
DGENRE=Sertanejo
TTITLE0=Feito folha espalhada pelo chão
TTITLE1=Bate coração
TTITLE2=Quando o coração se entrega
TTITLE3=Carente de paixão
TTITLE4=Agora é pra valer
TTITLE5=Eu tô no meio
TTITLE6=Eu tô que tô
TTITLE7=A solidão é uma cachaça
TTITLE8=E a chuva que cai
TTITLE9=Hoje eu te esqueci
TTITLE10=Atitudes tão desiguais
EXTD=
EXTT0=
EXTT1=
EXTT2=
EXTT3=
EXTT4=
EXTT5=
EXTT6=
EXTT7=
EXTT8=
EXTT9=
EXTT10=
PLAYORDER=
